<?xml version="1.0" encoding="UTF-8"?>
<svg xmlns="http://www.w3.org/2000/svg" xmlns:xlink="http://www.w3.org/1999/xlink" width="3873" height="3873" viewBox="0 0 3873 3873">
<defs>
<clipPath id="clip-0">
<path clip-rule="evenodd" d="M 1936.5 0 C 3006 0 3873 867 3873 1936.5 C 3873 3006 3006 3873 1936.5 3873 C 867 3873 0 3006 0 1936.5 C 0 867 867 0 1936.5 0 "/>
</clipPath>
<radialGradient id="radial-pattern-0" gradientUnits="userSpaceOnUse" cx="0" cy="0" fx="0" fy="0" r="1549.19" gradientTransform="matrix(1, 0, 0, 1, 1936.5, 1936.5)">
<stop offset="0" stop-color="rgb(33.201599%, 33.201599%, 33.201599%)" stop-opacity="1"/>
<stop offset="0.0078125" stop-color="rgb(32.876587%, 32.876587%, 32.876587%)" stop-opacity="1"/>
<stop offset="0.0195312" stop-color="rgb(32.485962%, 32.485962%, 32.485962%)" stop-opacity="1"/>
<stop offset="0.03125" stop-color="rgb(32.095337%, 32.095337%, 32.095337%)" stop-opacity="1"/>
<stop offset="0.0429688" stop-color="rgb(31.704712%, 31.704712%, 31.704712%)" stop-opacity="1"/>
<stop offset="0.0546875" stop-color="rgb(31.314087%, 31.314087%, 31.314087%)" stop-opacity="1"/>
<stop offset="0.0664062" stop-color="rgb(30.923462%, 30.923462%, 30.923462%)" stop-opacity="1"/>
<stop offset="0.078125" stop-color="rgb(30.532837%, 30.532837%, 30.532837%)" stop-opacity="1"/>
<stop offset="0.0898438" stop-color="rgb(30.142212%, 30.142212%, 30.142212%)" stop-opacity="1"/>
<stop offset="0.101562" stop-color="rgb(29.751587%, 29.751587%, 29.751587%)" stop-opacity="1"/>
<stop offset="0.113281" stop-color="rgb(29.360962%, 29.360962%, 29.360962%)" stop-opacity="1"/>
<stop offset="0.125" stop-color="rgb(28.970337%, 28.970337%, 28.970337%)" stop-opacity="1"/>
<stop offset="0.136719" stop-color="rgb(28.579712%, 28.579712%, 28.579712%)" stop-opacity="1"/>
<stop offset="0.148438" stop-color="rgb(28.189087%, 28.189087%, 28.189087%)" stop-opacity="1"/>
<stop offset="0.160156" stop-color="rgb(27.798462%, 27.798462%, 27.798462%)" stop-opacity="1"/>
<stop offset="0.171875" stop-color="rgb(27.407837%, 27.407837%, 27.407837%)" stop-opacity="1"/>
<stop offset="0.183594" stop-color="rgb(27.017212%, 27.017212%, 27.017212%)" stop-opacity="1"/>
<stop offset="0.195312" stop-color="rgb(26.626587%, 26.626587%, 26.626587%)" stop-opacity="1"/>
<stop offset="0.207031" stop-color="rgb(26.235962%, 26.235962%, 26.235962%)" stop-opacity="1"/>
<stop offset="0.21875" stop-color="rgb(25.845337%, 25.845337%, 25.845337%)" stop-opacity="1"/>
<stop offset="0.230469" stop-color="rgb(25.454712%, 25.454712%, 25.454712%)" stop-opacity="1"/>
<stop offset="0.242188" stop-color="rgb(25.064087%, 25.064087%, 25.064087%)" stop-opacity="1"/>
<stop offset="0.253906" stop-color="rgb(24.737549%, 24.737549%, 24.737549%)" stop-opacity="1"/>
<stop offset="0.261719" stop-color="rgb(24.478149%, 24.478149%, 24.478149%)" stop-opacity="1"/>
<stop offset="0.269531" stop-color="rgb(24.217224%, 24.217224%, 24.217224%)" stop-opacity="1"/>
<stop offset="0.277344" stop-color="rgb(23.956299%, 23.956299%, 23.956299%)" stop-opacity="1"/>
<stop offset="0.285156" stop-color="rgb(23.696899%, 23.696899%, 23.696899%)" stop-opacity="1"/>
<stop offset="0.292969" stop-color="rgb(23.435974%, 23.435974%, 23.435974%)" stop-opacity="1"/>
<stop offset="0.300781" stop-color="rgb(23.175049%, 23.175049%, 23.175049%)" stop-opacity="1"/>
<stop offset="0.308594" stop-color="rgb(22.915649%, 22.915649%, 22.915649%)" stop-opacity="1"/>
<stop offset="0.316406" stop-color="rgb(22.654724%, 22.654724%, 22.654724%)" stop-opacity="1"/>
<stop offset="0.324219" stop-color="rgb(22.393799%, 22.393799%, 22.393799%)" stop-opacity="1"/>
<stop offset="0.332031" stop-color="rgb(22.134399%, 22.134399%, 22.134399%)" stop-opacity="1"/>
<stop offset="0.339844" stop-color="rgb(21.873474%, 21.873474%, 21.873474%)" stop-opacity="1"/>
<stop offset="0.347656" stop-color="rgb(21.612549%, 21.612549%, 21.612549%)" stop-opacity="1"/>
<stop offset="0.355469" stop-color="rgb(21.353149%, 21.353149%, 21.353149%)" stop-opacity="1"/>
<stop offset="0.363281" stop-color="rgb(21.092224%, 21.092224%, 21.092224%)" stop-opacity="1"/>
<stop offset="0.371094" stop-color="rgb(20.831299%, 20.831299%, 20.831299%)" stop-opacity="1"/>
<stop offset="0.378906" stop-color="rgb(20.571899%, 20.571899%, 20.571899%)" stop-opacity="1"/>
<stop offset="0.386719" stop-color="rgb(20.310974%, 20.310974%, 20.310974%)" stop-opacity="1"/>
<stop offset="0.394531" stop-color="rgb(20.050049%, 20.050049%, 20.050049%)" stop-opacity="1"/>
<stop offset="0.402344" stop-color="rgb(19.790649%, 19.790649%, 19.790649%)" stop-opacity="1"/>
<stop offset="0.410156" stop-color="rgb(19.529724%, 19.529724%, 19.529724%)" stop-opacity="1"/>
<stop offset="0.417969" stop-color="rgb(19.268799%, 19.268799%, 19.268799%)" stop-opacity="1"/>
<stop offset="0.425781" stop-color="rgb(19.009399%, 19.009399%, 19.009399%)" stop-opacity="1"/>
<stop offset="0.433594" stop-color="rgb(18.748474%, 18.748474%, 18.748474%)" stop-opacity="1"/>
<stop offset="0.441406" stop-color="rgb(18.487549%, 18.487549%, 18.487549%)" stop-opacity="1"/>
<stop offset="0.449219" stop-color="rgb(18.228149%, 18.228149%, 18.228149%)" stop-opacity="1"/>
<stop offset="0.457031" stop-color="rgb(17.967224%, 17.967224%, 17.967224%)" stop-opacity="1"/>
<stop offset="0.464844" stop-color="rgb(17.706299%, 17.706299%, 17.706299%)" stop-opacity="1"/>
<stop offset="0.472656" stop-color="rgb(17.446899%, 17.446899%, 17.446899%)" stop-opacity="1"/>
<stop offset="0.480469" stop-color="rgb(17.185974%, 17.185974%, 17.185974%)" stop-opacity="1"/>
<stop offset="0.488281" stop-color="rgb(16.925049%, 16.925049%, 16.925049%)" stop-opacity="1"/>
<stop offset="0.496094" stop-color="rgb(16.665649%, 16.665649%, 16.665649%)" stop-opacity="1"/>
<stop offset="0.503906" stop-color="rgb(16.340637%, 16.340637%, 16.340637%)" stop-opacity="1"/>
<stop offset="0.515625" stop-color="rgb(15.950012%, 15.950012%, 15.950012%)" stop-opacity="1"/>
<stop offset="0.527344" stop-color="rgb(15.559387%, 15.559387%, 15.559387%)" stop-opacity="1"/>
<stop offset="0.539062" stop-color="rgb(15.168762%, 15.168762%, 15.168762%)" stop-opacity="1"/>
<stop offset="0.550781" stop-color="rgb(14.778137%, 14.778137%, 14.778137%)" stop-opacity="1"/>
<stop offset="0.5625" stop-color="rgb(14.387512%, 14.387512%, 14.387512%)" stop-opacity="1"/>
<stop offset="0.574219" stop-color="rgb(13.996887%, 13.996887%, 13.996887%)" stop-opacity="1"/>
<stop offset="0.585938" stop-color="rgb(13.606262%, 13.606262%, 13.606262%)" stop-opacity="1"/>
<stop offset="0.597656" stop-color="rgb(13.215637%, 13.215637%, 13.215637%)" stop-opacity="1"/>
<stop offset="0.609375" stop-color="rgb(12.825012%, 12.825012%, 12.825012%)" stop-opacity="1"/>
<stop offset="0.621094" stop-color="rgb(12.434387%, 12.434387%, 12.434387%)" stop-opacity="1"/>
<stop offset="0.632812" stop-color="rgb(12.107849%, 12.107849%, 12.107849%)" stop-opacity="1"/>
<stop offset="0.640625" stop-color="rgb(11.846924%, 11.846924%, 11.846924%)" stop-opacity="1"/>
<stop offset="0.648438" stop-color="rgb(11.587524%, 11.587524%, 11.587524%)" stop-opacity="1"/>
<stop offset="0.65625" stop-color="rgb(11.326599%, 11.326599%, 11.326599%)" stop-opacity="1"/>
<stop offset="0.664062" stop-color="rgb(11.065674%, 11.065674%, 11.065674%)" stop-opacity="1"/>
<stop offset="0.671875" stop-color="rgb(10.806274%, 10.806274%, 10.806274%)" stop-opacity="1"/>
<stop offset="0.679688" stop-color="rgb(10.545349%, 10.545349%, 10.545349%)" stop-opacity="1"/>
<stop offset="0.6875" stop-color="rgb(10.284424%, 10.284424%, 10.284424%)" stop-opacity="1"/>
<stop offset="0.695312" stop-color="rgb(10.025024%, 10.025024%, 10.025024%)" stop-opacity="1"/>
<stop offset="0.703125" stop-color="rgb(9.764099%, 9.764099%, 9.764099%)" stop-opacity="1"/>
<stop offset="0.710938" stop-color="rgb(9.503174%, 9.503174%, 9.503174%)" stop-opacity="1"/>
<stop offset="0.71875" stop-color="rgb(9.243774%, 9.243774%, 9.243774%)" stop-opacity="1"/>
<stop offset="0.726562" stop-color="rgb(8.982849%, 8.982849%, 8.982849%)" stop-opacity="1"/>
<stop offset="0.734375" stop-color="rgb(8.721924%, 8.721924%, 8.721924%)" stop-opacity="1"/>
<stop offset="0.742188" stop-color="rgb(8.462524%, 8.462524%, 8.462524%)" stop-opacity="1"/>
<stop offset="0.75" stop-color="rgb(8.201599%, 8.201599%, 8.201599%)" stop-opacity="1"/>
<stop offset="0.757812" stop-color="rgb(7.876587%, 7.876587%, 7.876587%)" stop-opacity="1"/>
<stop offset="0.769531" stop-color="rgb(7.485962%, 7.485962%, 7.485962%)" stop-opacity="1"/>
<stop offset="0.78125" stop-color="rgb(7.095337%, 7.095337%, 7.095337%)" stop-opacity="1"/>
<stop offset="0.792969" stop-color="rgb(6.704712%, 6.704712%, 6.704712%)" stop-opacity="1"/>
<stop offset="0.804688" stop-color="rgb(6.314087%, 6.314087%, 6.314087%)" stop-opacity="1"/>
<stop offset="0.816406" stop-color="rgb(5.987549%, 5.987549%, 5.987549%)" stop-opacity="1"/>
<stop offset="0.824219" stop-color="rgb(5.728149%, 5.728149%, 5.728149%)" stop-opacity="1"/>
<stop offset="0.832031" stop-color="rgb(5.467224%, 5.467224%, 5.467224%)" stop-opacity="1"/>
<stop offset="0.839844" stop-color="rgb(5.206299%, 5.206299%, 5.206299%)" stop-opacity="1"/>
<stop offset="0.847656" stop-color="rgb(4.946899%, 4.946899%, 4.946899%)" stop-opacity="1"/>
<stop offset="0.855469" stop-color="rgb(4.685974%, 4.685974%, 4.685974%)" stop-opacity="1"/>
<stop offset="0.863281" stop-color="rgb(4.425049%, 4.425049%, 4.425049%)" stop-opacity="1"/>
<stop offset="0.871094" stop-color="rgb(4.165649%, 4.165649%, 4.165649%)" stop-opacity="1"/>
<stop offset="0.878906" stop-color="rgb(3.840637%, 3.840637%, 3.840637%)" stop-opacity="1"/>
<stop offset="0.890625" stop-color="rgb(3.450012%, 3.450012%, 3.450012%)" stop-opacity="1"/>
<stop offset="0.902344" stop-color="rgb(3.059387%, 3.059387%, 3.059387%)" stop-opacity="1"/>
<stop offset="0.914062" stop-color="rgb(2.732849%, 2.732849%, 2.732849%)" stop-opacity="1"/>
<stop offset="0.921875" stop-color="rgb(2.471924%, 2.471924%, 2.471924%)" stop-opacity="1"/>
<stop offset="0.929688" stop-color="rgb(2.212524%, 2.212524%, 2.212524%)" stop-opacity="1"/>
<stop offset="0.9375" stop-color="rgb(1.951599%, 1.951599%, 1.951599%)" stop-opacity="1"/>
<stop offset="0.945312" stop-color="rgb(1.626587%, 1.626587%, 1.626587%)" stop-opacity="1"/>
<stop offset="0.957031" stop-color="rgb(1.300049%, 1.300049%, 1.300049%)" stop-opacity="1"/>
<stop offset="0.964844" stop-color="rgb(1.040649%, 1.040649%, 1.040649%)" stop-opacity="1"/>
<stop offset="0.972656" stop-color="rgb(0.715637%, 0.715637%, 0.715637%)" stop-opacity="1"/>
<stop offset="0.984375" stop-color="rgb(0.389099%, 0.389099%, 0.389099%)" stop-opacity="1"/>
<stop offset="0.992188" stop-color="rgb(0.1297%, 0.1297%, 0.1297%)" stop-opacity="1"/>
<stop offset="1" stop-color="rgb(0%, 0%, 0%)" stop-opacity="1"/>
</radialGradient>
</defs>
<g clip-path="url(#clip-0)">
<rect x="-387.3" y="-387.3" width="4647.6" height="4647.6" fill="url(#radial-pattern-0)"/>
</g>
<path fill-rule="evenodd" fill="rgb(100%, 100%, 99.609375%)" fill-opacity="1" d="M 1921.199219 2350.5 C 1909.101562 2350.5 1897.699219 2343.101562 1893.101562 2331.199219 L 1780.101562 2034.199219 C 1774.199219 2018.699219 1782 2001.300781 1797.5 1995.5 C 1813 1989.601562 1830.398438 1997.398438 1836.199219 2012.898438 L 1949.199219 2309.898438 C 1955.101562 2325.398438 1947.300781 2342.800781 1931.800781 2348.601562 C 1928.398438 2349.800781 1924.800781 2350.5 1921.199219 2350.5 "/>
<path fill-rule="evenodd" fill="rgb(100%, 100%, 99.609375%)" fill-opacity="1" d="M 1921.199219 2350.5 C 1917.699219 2350.5 1914 2349.898438 1910.5 2348.5 C 1895 2342.601562 1887.199219 2325.300781 1893.101562 2309.800781 L 2006.101562 2012.800781 C 2012 1997.300781 2029.300781 1989.5 2044.800781 1995.398438 C 2060.300781 2001.300781 2068.101562 2018.601562 2062.199219 2034.101562 L 1949.199219 2331.101562 C 1944.699219 2343.101562 1933.300781 2350.5 1921.199219 2350.5 "/>
<path fill-rule="evenodd" fill="rgb(100%, 100%, 99.609375%)" fill-opacity="1" d="M 1558.398438 2350.5 C 1520 2350.5 1484.300781 2333.398438 1462.699219 2304.800781 C 1452.699219 2291.5 1455.398438 2272.699219 1468.699219 2262.800781 C 1482 2252.800781 1500.800781 2255.5 1510.699219 2268.800781 C 1520.898438 2282.398438 1538.800781 2290.601562 1558.398438 2290.601562 C 1589 2290.601562 1613.898438 2270.800781 1613.898438 2246.398438 C 1613.898438 2217.398438 1601.398438 2211.699219 1552.398438 2201.5 C 1508.800781 2192.5 1442.898438 2178.898438 1442.898438 2097.800781 C 1442.898438 2040.300781 1494.699219 1993.5 1558.398438 1993.5 C 1591.898438 1993.5 1623.699219 2006.601562 1645.601562 2029.300781 C 1657.101562 2041.199219 1656.800781 2060.199219 1644.898438 2071.699219 C 1633 2083.199219 1614 2082.898438 1602.5 2070.898438 C 1591.800781 2059.800781 1575.800781 2053.5 1558.601562 2053.5 C 1528 2053.5 1503.101562 2073.300781 1503.101562 2097.699219 C 1503.101562 2126.699219 1515.601562 2132.398438 1564.601562 2142.601562 C 1608.199219 2151.601562 1674.101562 2165.199219 1674.101562 2246.300781 C 1673.898438 2303.699219 1622.101562 2350.5 1558.398438 2350.5 "/>
<path fill-rule="evenodd" fill="rgb(100%, 100%, 99.609375%)" fill-opacity="1" d="M 2305.898438 2350.5 L 2267.199219 2350.5 C 2198.699219 2350.5 2142.898438 2297.601562 2142.898438 2232.699219 L 2142.898438 2111.300781 C 2142.898438 2046.300781 2198.601562 1993.398438 2267.199219 1993.398438 L 2400.101562 1993.398438 C 2416.699219 1993.398438 2430.101562 2006.800781 2430.101562 2023.398438 C 2430.101562 2040 2416.699219 2053.398438 2400.101562 2053.398438 L 2267.199219 2053.398438 C 2231.800781 2053.398438 2203 2079.300781 2203 2111.199219 L 2203 2232.601562 C 2203 2264.5 2231.800781 2290.398438 2267.199219 2290.398438 L 2305.898438 2290.398438 C 2341.300781 2290.398438 2370.101562 2264.5 2370.101562 2232.601562 L 2370.101562 2197.199219 L 2327.300781 2197.199219 C 2310.699219 2197.199219 2297.300781 2183.800781 2297.300781 2167.199219 C 2297.300781 2150.601562 2310.699219 2137.199219 2327.300781 2137.199219 L 2400.101562 2137.199219 C 2416.699219 2137.199219 2430.101562 2150.601562 2430.101562 2167.199219 L 2430.101562 2232.601562 C 2430.199219 2297.601562 2374.398438 2350.5 2305.898438 2350.5 "/>
<path fill-rule="evenodd" fill="rgb(100%, 100%, 99.609375%)" fill-opacity="1" d="M 1168 2901.199219 L 2705 2901.199219 L 2705 971.800781 L 1543 971.800781 L 1168 1346.699219 Z M 2735 2961.199219 L 1138 2961.199219 C 1121.398438 2961.199219 1108 2947.800781 1108 2931.199219 L 1108 1334.199219 C 1108 1326.199219 1111.199219 1318.601562 1116.800781 1313 L 1509.300781 920.601562 C 1514.898438 915 1522.601562 911.800781 1530.5 911.800781 L 2735 911.800781 C 2751.601562 911.800781 2765 925.199219 2765 941.800781 L 2765 2931.199219 C 2765 2947.800781 2751.601562 2961.199219 2735 2961.199219 "/>
<path fill-rule="evenodd" fill="rgb(100%, 100%, 99.609375%)" fill-opacity="1" d="M 1371.898438 1845.898438 L 2501.199219 1845.898438 L 2501.199219 1175.699219 L 1560.601562 1175.699219 L 1560.601562 1334.300781 C 1560.601562 1350.898438 1547.199219 1364.300781 1530.601562 1364.300781 L 1372 1364.300781 Z M 2531.101562 1905.898438 L 1341.898438 1905.898438 C 1325.300781 1905.898438 1311.898438 1892.5 1311.898438 1875.898438 L 1311.898438 1334.300781 C 1311.898438 1317.699219 1325.300781 1304.300781 1341.898438 1304.300781 L 1500.5 1304.300781 L 1500.5 1145.699219 C 1500.5 1129.101562 1513.898438 1115.699219 1530.5 1115.699219 L 2531.199219 1115.699219 C 2547.800781 1115.699219 2561.199219 1129.101562 2561.199219 1145.699219 L 2561.199219 1876 C 2561.101562 1892.5 2547.699219 1905.898438 2531.101562 1905.898438 Z M 1371.898438 2697.398438 L 2501.199219 2697.398438 L 2501.199219 2498 L 1371.898438 2498 Z M 2531.101562 2757.398438 L 1341.898438 2757.398438 C 1325.300781 2757.398438 1311.898438 2744 1311.898438 2727.398438 L 1311.898438 2468 C 1311.898438 2451.398438 1325.300781 2438 1341.898438 2438 L 2531.199219 2438 C 2547.800781 2438 2561.199219 2451.398438 2561.199219 2468 L 2561.199219 2727.398438 C 2561.101562 2743.898438 2547.699219 2757.398438 2531.101562 2757.398438 "/>
<path fill-rule="evenodd" fill="rgb(100%, 100%, 99.609375%)" fill-opacity="1" d="M 1210.5 1304.300781 L 1500.5 1304.300781 L 1500.5 1014.300781 Z M 1530.5 1364.300781 L 1138 1364.300781 C 1125.898438 1364.300781 1114.898438 1357 1110.300781 1345.800781 C 1105.699219 1334.601562 1108.199219 1321.699219 1116.800781 1313.101562 L 1509.300781 920.601562 C 1517.898438 912 1530.800781 909.5 1542 914.101562 C 1553.199219 918.699219 1560.5 929.699219 1560.5 941.800781 L 1560.5 1334.300781 C 1560.5 1350.800781 1547 1364.300781 1530.5 1364.300781 "/>
<path fill-rule="evenodd" fill="rgb(100%, 100%, 99.609375%)" fill-opacity="1" d="M 1168 2437.898438 L 2705 2437.898438 L 2705 1905.898438 L 1168 1905.898438 Z M 2735 2497.898438 L 1138 2497.898438 C 1121.398438 2497.898438 1108 2484.5 1108 2467.898438 L 1108 1875.898438 C 1108 1859.300781 1121.398438 1845.898438 1138 1845.898438 L 2735 1845.898438 C 2751.601562 1845.898438 2765 1859.300781 2765 1875.898438 L 2765 2467.898438 C 2765 2484.5 2751.601562 2497.898438 2735 2497.898438 "/>
<path fill-rule="evenodd" fill="rgb(100%, 100%, 99.609375%)" fill-opacity="1" d="M 2328.898438 1409.101562 L 1742.898438 1409.101562 C 1726.300781 1409.101562 1712.898438 1395.699219 1712.898438 1379.101562 C 1712.898438 1362.5 1726.300781 1349.101562 1742.898438 1349.101562 L 2328.898438 1349.101562 C 2345.5 1349.101562 2358.898438 1362.5 2358.898438 1379.101562 C 2358.898438 1395.601562 2345.5 1409.101562 2328.898438 1409.101562 "/>
<path fill-rule="evenodd" fill="rgb(100%, 100%, 99.609375%)" fill-opacity="1" d="M 2328.898438 1684.199219 L 1609.101562 1684.199219 C 1592.5 1684.199219 1579.101562 1670.800781 1579.101562 1654.199219 C 1579.101562 1637.601562 1592.5 1624.199219 1609.101562 1624.199219 L 2328.898438 1624.199219 C 2345.5 1624.199219 2358.898438 1637.601562 2358.898438 1654.199219 C 2358.898438 1670.800781 2345.398438 1684.199219 2328.898438 1684.199219 "/>
</svg>
